# MagicaVoxel @ Ephtracy

# group
o 

# material
mtllib 階段.mtl
usemtl palette

# normals
vn -1 0 0
vn 1 0 0
vn 0 0 1
vn 0 0 -1
vn 0 -1 0
vn 0 1 0

# texcoords
vt 0.306641 0.5

# verts
v 0 2 0
v 0 2 -8
v 0 6.1 0
v 0 6.1 -8
v 0.6 5.7 0
v 0.6 5.7 -8
v 0.6 6.1 0
v 0.6 6.1 -8
v 1.2 5.4 0
v 1.2 5.4 -8
v 1.2 5.7 0
v 1.2 5.7 -8
v 1.8 5.1 0
v 1.8 5.1 -8
v 1.8 5.4 0
v 1.8 5.4 -8
v 2.4 4.8 0
v 2.4 4.8 -8
v 2.4 5.1 0
v 2.4 5.1 -8
v 3 4.5 0
v 3 4.5 -8
v 3 4.8 0
v 3 4.8 -8
v 3.6 4.2 0
v 3.6 4.2 -8
v 3.6 4.5 0
v 3.6 4.5 -8
v 4.2 3.9 0
v 4.2 3.9 -8
v 4.2 4.2 0
v 4.2 4.2 -8
v 4.8 3.6 0
v 4.8 3.6 -8
v 4.8 3.9 0
v 4.8 3.9 -8
v 5.4 3.3 0
v 5.4 3.3 -8
v 5.4 3.6 0
v 5.4 3.6 -8
v 6 3 0
v 6 3 -8
v 6 3.3 0
v 6 3.3 -8
v 6.5 2.7 0
v 6.5 2.7 -8
v 6.5 3 0
v 6.5 3 -8
v 7 2.4 0
v 7 2.4 -8
v 7 2.7 0
v 7 2.7 -8
v 7.5 2.1 0
v 7.5 2.1 -8
v 7.5 2.4 0
v 7.5 2.4 -8
v 8 2 0
v 8 2 -8
v 8 2.1 0
v 8 2.1 -8
v 0 2 0
v 0 6.1 0
v 0.6 5.7 0
v 0.6 6.1 0
v 1.2 5.4 0
v 1.2 5.7 0
v 1.8 5.1 0
v 1.8 5.4 0
v 2.4 4.8 0
v 2.4 5.1 0
v 3 4.5 0
v 3 4.8 0
v 3.6 4.2 0
v 3.6 4.5 0
v 4.2 3.9 0
v 4.2 4.2 0
v 4.8 3.6 0
v 4.8 3.9 0
v 5.4 3.3 0
v 5.4 3.6 0
v 6 3 0
v 6 3.3 0
v 6.5 2.7 0
v 6.5 3 0
v 7 2.4 0
v 7 2.7 0
v 7.5 2.1 0
v 7.5 2.4 0
v 8 2 0
v 8 2.1 0
v 0 2 -8
v 0 6.1 -8
v 0.6 5.7 -8
v 0.6 6.1 -8
v 1.2 5.4 -8
v 1.2 5.7 -8
v 1.8 5.1 -8
v 1.8 5.4 -8
v 2.4 4.8 -8
v 2.4 5.1 -8
v 3 4.5 -8
v 3 4.8 -8
v 3.6 4.2 -8
v 3.6 4.5 -8
v 4.2 3.9 -8
v 4.2 4.2 -8
v 4.8 3.6 -8
v 4.8 3.9 -8
v 5.4 3.3 -8
v 5.4 3.6 -8
v 6 3 -8
v 6 3.3 -8
v 6.5 2.7 -8
v 6.5 3 -8
v 7 2.4 -8
v 7 2.7 -8
v 7.5 2.1 -8
v 7.5 2.4 -8
v 8 2 -8
v 8 2.1 -8
v 0 2 0
v 8 2 0
v 0 2 -8
v 8 2 -8
v 7.5 2.1 0
v 8 2.1 0
v 7.5 2.1 -8
v 8 2.1 -8
v 7 2.4 0
v 7.5 2.4 0
v 7 2.4 -8
v 7.5 2.4 -8
v 6.5 2.7 0
v 7 2.7 0
v 6.5 2.7 -8
v 7 2.7 -8
v 6 3 0
v 6.5 3 0
v 6 3 -8
v 6.5 3 -8
v 5.4 3.3 0
v 6 3.3 0
v 5.4 3.3 -8
v 6 3.3 -8
v 4.8 3.6 0
v 5.4 3.6 0
v 4.8 3.6 -8
v 5.4 3.6 -8
v 4.2 3.9 0
v 4.8 3.9 0
v 4.2 3.9 -8
v 4.8 3.9 -8
v 3.6 4.2 0
v 4.2 4.2 0
v 3.6 4.2 -8
v 4.2 4.2 -8
v 3 4.5 0
v 3.6 4.5 0
v 3 4.5 -8
v 3.6 4.5 -8
v 2.4 4.8 0
v 3 4.8 0
v 2.4 4.8 -8
v 3 4.8 -8
v 1.8 5.1 0
v 2.4 5.1 0
v 1.8 5.1 -8
v 2.4 5.1 -8
v 1.2 5.4 0
v 1.8 5.4 0
v 1.2 5.4 -8
v 1.8 5.4 -8
v 0.6 5.7 0
v 1.2 5.7 0
v 0.6 5.7 -8
v 1.2 5.7 -8
v 0 6.1 0
v 0.6 6.1 0
v 0 6.1 -8
v 0.6 6.1 -8

# faces
f 3/1/1 2/1/1 1/1/1
f 4/1/1 2/1/1 3/1/1
f 5/1/2 6/1/2 7/1/2
f 7/1/2 6/1/2 8/1/2
f 9/1/2 10/1/2 11/1/2
f 11/1/2 10/1/2 12/1/2
f 13/1/2 14/1/2 15/1/2
f 15/1/2 14/1/2 16/1/2
f 17/1/2 18/1/2 19/1/2
f 19/1/2 18/1/2 20/1/2
f 21/1/2 22/1/2 23/1/2
f 23/1/2 22/1/2 24/1/2
f 25/1/2 26/1/2 27/1/2
f 27/1/2 26/1/2 28/1/2
f 29/1/2 30/1/2 31/1/2
f 31/1/2 30/1/2 32/1/2
f 33/1/2 34/1/2 35/1/2
f 35/1/2 34/1/2 36/1/2
f 37/1/2 38/1/2 39/1/2
f 39/1/2 38/1/2 40/1/2
f 41/1/2 42/1/2 43/1/2
f 43/1/2 42/1/2 44/1/2
f 45/1/2 46/1/2 47/1/2
f 47/1/2 46/1/2 48/1/2
f 49/1/2 50/1/2 51/1/2
f 51/1/2 50/1/2 52/1/2
f 53/1/2 54/1/2 55/1/2
f 55/1/2 54/1/2 56/1/2
f 57/1/2 58/1/2 59/1/2
f 59/1/2 58/1/2 60/1/2
f 63/1/3 62/1/3 61/1/3
f 64/1/3 62/1/3 63/1/3
f 65/1/3 63/1/3 61/1/3
f 66/1/3 63/1/3 65/1/3
f 67/1/3 65/1/3 61/1/3
f 68/1/3 65/1/3 67/1/3
f 69/1/3 67/1/3 61/1/3
f 70/1/3 67/1/3 69/1/3
f 71/1/3 69/1/3 61/1/3
f 72/1/3 69/1/3 71/1/3
f 73/1/3 71/1/3 61/1/3
f 74/1/3 71/1/3 73/1/3
f 75/1/3 73/1/3 61/1/3
f 76/1/3 73/1/3 75/1/3
f 77/1/3 75/1/3 61/1/3
f 78/1/3 75/1/3 77/1/3
f 79/1/3 77/1/3 61/1/3
f 80/1/3 77/1/3 79/1/3
f 81/1/3 79/1/3 61/1/3
f 82/1/3 79/1/3 81/1/3
f 83/1/3 81/1/3 61/1/3
f 84/1/3 81/1/3 83/1/3
f 85/1/3 83/1/3 61/1/3
f 86/1/3 83/1/3 85/1/3
f 87/1/3 85/1/3 61/1/3
f 88/1/3 85/1/3 87/1/3
f 89/1/3 87/1/3 61/1/3
f 90/1/3 87/1/3 89/1/3
f 91/1/4 92/1/4 93/1/4
f 93/1/4 92/1/4 94/1/4
f 91/1/4 93/1/4 95/1/4
f 95/1/4 93/1/4 96/1/4
f 91/1/4 95/1/4 97/1/4
f 97/1/4 95/1/4 98/1/4
f 91/1/4 97/1/4 99/1/4
f 99/1/4 97/1/4 100/1/4
f 91/1/4 99/1/4 101/1/4
f 101/1/4 99/1/4 102/1/4
f 91/1/4 101/1/4 103/1/4
f 103/1/4 101/1/4 104/1/4
f 91/1/4 103/1/4 105/1/4
f 105/1/4 103/1/4 106/1/4
f 91/1/4 105/1/4 107/1/4
f 107/1/4 105/1/4 108/1/4
f 91/1/4 107/1/4 109/1/4
f 109/1/4 107/1/4 110/1/4
f 91/1/4 109/1/4 111/1/4
f 111/1/4 109/1/4 112/1/4
f 91/1/4 111/1/4 113/1/4
f 113/1/4 111/1/4 114/1/4
f 91/1/4 113/1/4 115/1/4
f 115/1/4 113/1/4 116/1/4
f 91/1/4 115/1/4 117/1/4
f 117/1/4 115/1/4 118/1/4
f 91/1/4 117/1/4 119/1/4
f 119/1/4 117/1/4 120/1/4
f 123/1/5 122/1/5 121/1/5
f 124/1/5 122/1/5 123/1/5
f 125/1/6 126/1/6 127/1/6
f 127/1/6 126/1/6 128/1/6
f 129/1/6 130/1/6 131/1/6
f 131/1/6 130/1/6 132/1/6
f 133/1/6 134/1/6 135/1/6
f 135/1/6 134/1/6 136/1/6
f 137/1/6 138/1/6 139/1/6
f 139/1/6 138/1/6 140/1/6
f 141/1/6 142/1/6 143/1/6
f 143/1/6 142/1/6 144/1/6
f 145/1/6 146/1/6 147/1/6
f 147/1/6 146/1/6 148/1/6
f 149/1/6 150/1/6 151/1/6
f 151/1/6 150/1/6 152/1/6
f 153/1/6 154/1/6 155/1/6
f 155/1/6 154/1/6 156/1/6
f 157/1/6 158/1/6 159/1/6
f 159/1/6 158/1/6 160/1/6
f 161/1/6 162/1/6 163/1/6
f 163/1/6 162/1/6 164/1/6
f 165/1/6 166/1/6 167/1/6
f 167/1/6 166/1/6 168/1/6
f 169/1/6 170/1/6 171/1/6
f 171/1/6 170/1/6 172/1/6
f 173/1/6 174/1/6 175/1/6
f 175/1/6 174/1/6 176/1/6
f 177/1/6 178/1/6 179/1/6
f 179/1/6 178/1/6 180/1/6
